Despite his age and general weariness, Gebo keeps on working as an accountant to provide for his family. He lives with his wife, Doroteia, and his daughter-in-law, Sofia, but it is the absence of João, son and husband, that worries them. Gebo seems to be hiding something, especially to Doroteia, who is anxiously waiting to see her son again. Sofia is also waiting for her husband to come home, and yet she fears him. All of a sudden, João arrives and everything changes.﻿

______________________________________


General
Complete name                    : O Gebo E A Sombra (Manoel de Oliveira, 2012).mkv
Format                           : Matroska
File size                        : 1.50 GiB
Duration                         : 1h 31mn
Overall bit rate                 : 2 353 Kbps
Writing application              : HandBrake 0.9.8
Writing library                  : libmkv 0.6.5

Video
ID                               : 1
Format                           : AVC
Format/Info                      : Advanced Video Codec
Format profile                   : High@L3.1
Format settings, CABAC           : Yes
Format settings, ReFrames        : 11 frames
Format settings, GOP             : M=1, N=32
Codec ID                         : V_MPEG4/ISO/AVC
Duration                         : 1h 31mn
Bit rate                         : 1 950 Kbps
Width                            : 714 pixels
Height                           : 554 pixels
Display aspect ratio             : 16:9
Original display aspect ratio    : 16:9
Frame rate                       : 25.000 fps
Color space                      : YUV
Chroma subsampling               : 4:2:0
Bit depth                        : 8 bits
Scan type                        : Progressive
Bits/(Pixel*Frame)               : 0.197
Stream size                      : 1.22 GiB (82%)
Writing library                  : x264 core 120
Encoding settings                : cabac=1 / ref=11 / deblock=1:-2:-2 / analyse=0x3:0x133 / me=umh / subme=11 / psy=1 / psy_rd=1.00:0.00 / mixed_ref=1 / me_range=32 / chroma_me=1 / trellis=2 / 8x8dct=1 / cqm=0 / deadzone=21,11 / fast_pskip=0 / chroma_qp_offset=-2 / threads=3 / sliced_threads=0 / nr=0 / decimate=1 / interlaced=0 / bluray_compat=0 / constrained_intra=0 / bframes=9 / b_pyramid=2 / b_adapt=2 / b_bias=0 / direct=3 / weightb=1 / open_gop=0 / weightp=2 / keyint=250 / keyint_min=25 / scenecut=40 / intra_refresh=0 / rc_lookahead=50 / rc=abr / mbtree=1 / bitrate=1950 / ratetol=1.0 / qcomp=0.60 / qpmin=3 / qpmax=69 / qpstep=4 / ip_ratio=1.40 / aq=2:1.00
Language                         : English
Color primaries                  : BT.601-6 525, BT.1358 525, BT.1700 NTSC, SMPTE 170M
Transfer characteristics         : BT.709-5, BT.1361
Matrix coefficients              : BT.601-6 525, BT.1358 525, BT.1700 NTSC, SMPTE 170M

Audio
ID                               : 2
Format                           : AC-3
Format/Info                      : Audio Coding 3
Mode extension                   : CM (complete main)
Codec ID                         : A_AC3
Duration                         : 1h 31mn
Bit rate mode                    : Constant
Bit rate                         : 384 Kbps
Channel(s)                       : 6 channels
Channel positions                : Front: L C R, Side: L R, LFE
Sampling rate                    : 48.0 KHz
Bit depth                        : 16 bits
Compression mode                 : Lossy
Stream size                      : 250 MiB (16%)
Language                         : French

Text #1
ID                               : 3
Format                           : VobSub
Codec ID                         : S_VOBSUB
Codec ID/Info                    : The same subtitle format used on DVDs
Language                         : Portuguese

Text #2
ID                               : 4
Format                           : VobSub
Codec ID                         : S_VOBSUB
Codec ID/Info                    : The same subtitle format used on DVDs
Language                         : English